{
  "accessors": [
    {
      "bufferView": 2,
      "componentType": 5126,
      "count": 380,
      "max": [
        12.368339538574219,
        1.527400016784668,
        1.030809998512268
      ],
      "min": [
        -1.450819969177246,
        -1.527400016784668,
        -1.279379963874817
      ],
      "type": "VEC3"
    },
    {
      "bufferView": 2,
      "byteOffset": 4560,
      "componentType": 5126,
      "count": 380,
      "max": [
        0.9996738433837891,
        1.0,
        1.0
      ],
      "min": [
        -0.9992200136184692,
        -1.0,
        -0.9999980926513672
      ],
      "type": "VEC3"
    },
    {
      "bufferView": 1,
      "componentType": 5126,
      "count": 380,
      "max": [
        0.2694999873638153,
        0.4093799889087677
      ],
      "min": [
        0.0604499988257885,
        0.2282799929380417
      ],
      "type": "VEC2"
    },
    {
      "bufferView": 0,
      "componentType": 5125,
      "count": 756,
      "type": "SCALAR"
    },
    {
      "bufferView": 2,
      "byteOffset": 9120,
      "componentType": 5126,
      "count": 490,
      "max": [
        0.4021500051021576,
        1.1670500040054321,
        1.3201600313186646
      ],
      "min": [
        -1.2563400268554688,
        -0.4403499960899353,
        -1.263159990310669
      ],
      "type": "VEC3"
    },
    {
      "bufferView": 2,
      "byteOffset": 15000,
      "componentType": 5126,
      "count": 490,
      "max": [
        0.9999997615814209,
        1.0,
        0.999994158744812
      ],
      "min": [
        -0.9999997615814209,
        -1.0,
        -0.9999352097511292
      ],
      "type": "VEC3"
    },
    {
      "bufferView": 1,
      "byteOffset": 3040,
      "componentType": 5126,
      "count": 490,
      "max": [
        0.06581000238656998,
        0.3200500011444092
      ],
      "min": [
        0.04069000110030174,
        0.21820999681949615
      ],
      "type": "VEC2"
    },
    {
      "bufferView": 0,
      "byteOffset": 3024,
      "componentType": 5125,
      "count": 960,
      "type": "SCALAR"
    },
    {
      "bufferView": 2,
      "byteOffset": 20880,
      "componentType": 5126,
      "count": 355,
      "max": [
        12.457200050354004,
        0.7225800156593323,
        1.1835600137710571
      ],
      "min": [
        11.675100326538086,
        -2.6036200523376465,
        -1.2346199750900269
      ],
      "type": "VEC3"
    },
    {
      "bufferView": 2,
      "byteOffset": 25140,
      "componentType": 5126,
      "count": 355,
      "max": [
        0.9998716711997986,
        1.0,
        0.9998980760574341
      ],
      "min": [
        -0.9995298981666565,
        -1.0,
        -0.9991933107376099
      ],
      "type": "VEC3"
    },
    {
      "bufferView": 1,
      "byteOffset": 6960,
      "componentType": 5126,
      "count": 355,
      "max": [
        0.28290000557899475,
        0.41600000858306885
      ],
      "min": [
        0.26903000473976135,
        0.31248998641967773
      ],
      "type": "VEC2"
    },
    {
      "bufferView": 0,
      "byteOffset": 6864,
      "componentType": 5125,
      "count": 561,
      "type": "SCALAR"
    },
    {
      "bufferView": 2,
      "byteOffset": 29400,
      "componentType": 5126,
      "count": 1152,
      "max": [
        1.0138100385665894,
        1.0138100385665894,
        1.0
      ],
      "min": [
        -1.0138100385665894,
        -1.0138100385665894,
        -1.0
      ],
      "type": "VEC3"
    },
    {
      "bufferView": 2,
      "byteOffset": 43224,
      "componentType": 5126,
      "count": 1152,
      "max": [
        0.9951844215393066,
        0.9951844215393066,
        1.0
      ],
      "min": [
        -0.9951844215393066,
        -0.9951844215393066,
        -1.0
      ],
      "type": "VEC3"
    },
    {
      "bufferView": 1,
      "byteOffset": 9800,
      "componentType": 5126,
      "count": 1152,
      "max": [
        1.0072699785232544,
        1.0031499862670898
      ],
      "min": [
        0.31424999237060547,
        -0.03590000048279762
      ],
      "type": "VEC2"
    },
    {
      "bufferView": 0,
      "byteOffset": 9108,
      "componentType": 5125,
      "count": 2868,
      "type": "SCALAR"
    },
    {
      "bufferView": 2,
      "byteOffset": 57048,
      "componentType": 5126,
      "count": 326,
      "max": [
        -0.5429800152778625,
        1.3844000101089478,
        1.0129400491714478
      ],
      "min": [
        -1.0847100019454956,
        -1.3844000101089478,
        -1.2228699922561646
      ],
      "type": "VEC3"
    },
    {
      "bufferView": 2,
      "byteOffset": 60960,
      "componentType": 5126,
      "count": 326,
      "max": [
        1.0,
        1.0,
        1.0
      ],
      "min": [
        -1.0,
        -1.0,
        -1.0
      ],
      "type": "VEC3"
    },
    {
      "bufferView": 1,
      "byteOffset": 19016,
      "componentType": 5126,
      "count": 326,
      "max": [
        0.29681000113487244,
        0.41677001118659973
      ],
      "min": [
        0.28565001487731934,
        0.317440003156662
      ],
      "type": "VEC2"
    },
    {
      "bufferView": 0,
      "byteOffset": 20580,
      "componentType": 5125,
      "count": 636,
      "type": "SCALAR"
    },
    {
      "bufferView": 2,
      "byteOffset": 64872,
      "componentType": 5126,
      "count": 790,
      "max": [
        36.728641510009766,
        1.0,
        1.019819974899292
      ],
      "min": [
        -8.166319847106934,
        -1.0,
        -3.0355300903320313
      ],
      "type": "VEC3"
    },
    {
      "bufferView": 2,
      "byteOffset": 74352,
      "componentType": 5126,
      "count": 790,
      "max": [
        0.9917994141578674,
        1.0,
        0.9999990463256836
      ],
      "min": [
        -0.998887836933136,
        -1.0,
        -0.9999887943267822
      ],
      "type": "VEC3"
    },
    {
      "bufferView": 1,
      "byteOffset": 21624,
      "componentType": 5126,
      "count": 790,
      "max": [
        0.9674299955368042,
        0.7620599865913391
      ],
      "min": [
        0.21877999603748322,
        0.598609983921051
      ],
      "type": "VEC2"
    },
    {
      "bufferView": 0,
      "byteOffset": 23124,
      "componentType": 5125,
      "count": 1908,
      "type": "SCALAR"
    },
    {
      "bufferView": 2,
      "byteOffset": 83832,
      "componentType": 5126,
      "count": 1780,
      "max": [
        39.431739807128906,
        1.5814800262451172,
        1.3657599687576294
      ],
      "min": [
        -1.1061999797821045,
        -1.5814800262451172,
        -3.2592899799346924
      ],
      "type": "VEC3"
    },
    {
      "bufferView": 2,
      "byteOffset": 105192,
      "componentType": 5126,
      "count": 1780,
      "max": [
        0.9885917901992798,
        1.0,
        0.9999991655349731
      ],
      "min": [
        -0.9972345232963562,
        -1.0,
        -0.9999478459358215
      ],
      "type": "VEC3"
    },
    {
      "bufferView": 1,
      "byteOffset": 27944,
      "componentType": 5126,
      "count": 1780,
      "max": [
        0.9670000076293945,
        0.4387100040912628
      ],
      "min": [
        0.30750998854637146,
        0.2204899936914444
      ],
      "type": "VEC2"
    },
    {
      "bufferView": 0,
      "byteOffset": 30756,
      "componentType": 5125,
      "count": 3768,
      "type": "SCALAR"
    },
    {
      "bufferView": 2,
      "byteOffset": 126552,
      "componentType": 5126,
      "count": 326,
      "max": [
        -0.5429800152778625,
        1.3844000101089478,
        1.0129400491714478
      ],
      "min": [
        -1.0847100019454956,
        -1.3844000101089478,
        -1.2228699922561646
      ],
      "type": "VEC3"
    },
    {
      "bufferView": 2,
      "byteOffset": 130464,
      "componentType": 5126,
      "count": 326,
      "max": [
        1.0,
        1.0,
        1.0
      ],
      "min": [
        -1.0,
        -1.0,
        -1.0
      ],
      "type": "VEC3"
    },
    {
      "bufferView": 1,
      "byteOffset": 42184,
      "componentType": 5126,
      "count": 326,
      "max": [
        0.29681000113487244,
        0.41677001118659973
      ],
      "min": [
        0.28565001487731934,
        0.317440003156662
      ],
      "type": "VEC2"
    },
    {
      "bufferView": 0,
      "byteOffset": 45828,
      "componentType": 5125,
      "count": 636,
      "type": "SCALAR"
    },
    {
      "bufferView": 2,
      "byteOffset": 134376,
      "componentType": 5126,
      "count": 1152,
      "max": [
        1.0138100385665894,
        1.0138100385665894,
        1.0
      ],
      "min": [
        -1.0138100385665894,
        -1.0138100385665894,
        -1.0
      ],
      "type": "VEC3"
    },
    {
      "bufferView": 2,
      "byteOffset": 148200,
      "componentType": 5126,
      "count": 1152,
      "max": [
        0.9951844215393066,
        0.9951844215393066,
        1.0
      ],
      "min": [
        -0.9951844215393066,
        -0.9951844215393066,
        -1.0
      ],
      "type": "VEC3"
    },
    {
      "bufferView": 1,
      "byteOffset": 44792,
      "componentType": 5126,
      "count": 1152,
      "max": [
        1.0072699785232544,
        1.0031499862670898
      ],
      "min": [
        0.31424999237060547,
        -0.03590000048279762
      ],
      "type": "VEC2"
    },
    {
      "bufferView": 0,
      "byteOffset": 48372,
      "componentType": 5125,
      "count": 2868,
      "type": "SCALAR"
    },
    {
      "bufferView": 2,
      "byteOffset": 162024,
      "componentType": 5126,
      "count": 355,
      "max": [
        12.457200050354004,
        0.7225800156593323,
        1.1835600137710571
      ],
      "min": [
        11.675100326538086,
        -2.6036200523376465,
        -1.2346199750900269
      ],
      "type": "VEC3"
    },
    {
      "bufferView": 2,
      "byteOffset": 166284,
      "componentType": 5126,
      "count": 355,
      "max": [
        0.9998716711997986,
        1.0,
        0.9998980760574341
      ],
      "min": [
        -0.9995298981666565,
        -1.0,
        -0.9991933107376099
      ],
      "type": "VEC3"
    },
    {
      "bufferView": 1,
      "byteOffset": 54008,
      "componentType": 5126,
      "count": 355,
      "max": [
        0.28290000557899475,
        0.41600000858306885
      ],
      "min": [
        0.26903000473976135,
        0.31248998641967773
      ],
      "type": "VEC2"
    },
    {
      "bufferView": 0,
      "byteOffset": 59844,
      "componentType": 5125,
      "count": 561,
      "type": "SCALAR"
    },
    {
      "bufferView": 2,
      "byteOffset": 170544,
      "componentType": 5126,
      "count": 490,
      "max": [
        0.4021500051021576,
        1.1670500040054321,
        1.3201600313186646
      ],
      "min": [
        -1.2563400268554688,
        -0.4403499960899353,
        -1.263159990310669
      ],
      "type": "VEC3"
    },
    {
      "bufferView": 2,
      "byteOffset": 176424,
      "componentType": 5126,
      "count": 490,
      "max": [
        0.9999997615814209,
        1.0,
        0.999994158744812
      ],
      "min": [
        -0.9999997615814209,
        -1.0,
        -0.9999352097511292
      ],
      "type": "VEC3"
    },
    {
      "bufferView": 1,
      "byteOffset": 56848,
      "componentType": 5126,
      "count": 490,
      "max": [
        0.06581000238656998,
        0.3200500011444092
      ],
      "min": [
        0.04069000110030174,
        0.21820999681949615
      ],
      "type": "VEC2"
    },
    {
      "bufferView": 0,
      "byteOffset": 62088,
      "componentType": 5125,
      "count": 960,
      "type": "SCALAR"
    },
    {
      "bufferView": 2,
      "byteOffset": 182304,
      "componentType": 5126,
      "count": 380,
      "max": [
        12.368339538574219,
        1.527400016784668,
        1.030809998512268
      ],
      "min": [
        -1.450819969177246,
        -1.527400016784668,
        -1.279379963874817
      ],
      "type": "VEC3"
    },
    {
      "bufferView": 2,
      "byteOffset": 186864,
      "componentType": 5126,
      "count": 380,
      "max": [
        0.9996738433837891,
        1.0,
        1.0
      ],
      "min": [
        -0.9992200136184692,
        -1.0,
        -0.9999980926513672
      ],
      "type": "VEC3"
    },
    {
      "bufferView": 1,
      "byteOffset": 60768,
      "componentType": 5126,
      "count": 380,
      "max": [
        0.2694999873638153,
        0.4093799889087677
      ],
      "min": [
        0.0604499988257885,
        0.2282799929380417
      ],
      "type": "VEC2"
    },
    {
      "bufferView": 0,
      "byteOffset": 65928,
      "componentType": 5125,
      "count": 756,
      "type": "SCALAR"
    }
  ],
  "asset": {
    "extras": {
      "author": "Kimbly (https://sketchfab.com/Kimblyy)",
      "license": "CC-BY-4.0 (http://creativecommons.org/licenses/by/4.0/)",
      "source": "https://sketchfab.com/3d-models/katana-free-5d51e5d1ce734d75aa7522dad6351935",
      "title": "Katana (*FREE*)"
    },
    "generator": "Sketchfab-12.67.0",
    "version": "2.0"
  },
  "bufferViews": [
    {
      "buffer": 0,
      "byteLength": 68952,
      "name": "floatBufferViews",
      "target": 34963
    },
    {
      "buffer": 0,
      "byteLength": 63808,
      "byteOffset": 68952,
      "byteStride": 8,
      "name": "floatBufferViews",
      "target": 34962
    },
    {
      "buffer": 0,
      "byteLength": 191424,
      "byteOffset": 132760,
      "byteStride": 12,
      "name": "floatBufferViews",
      "target": 34962
    }
  ],
  "buffers": [
    {
      "byteLength": 324184,
      "uri": "scene.bin"
    }
  ],
  "images": [
    {
      "uri": "textures/Material_baseColor.jpeg"
    },
    {
      "uri": "textures/Material.001_baseColor.jpeg"
    }
  ],
  "materials": [
    {
      "doubleSided": true,
      "name": "Material",
      "pbrMetallicRoughness": {
        "baseColorTexture": {
          "index": 0
        },
        "metallicFactor": 0.0,
        "roughnessFactor": 0.6
      }
    },
    {
      "doubleSided": true,
      "name": "Material.001",
      "pbrMetallicRoughness": {
        "baseColorTexture": {
          "index": 1
        },
        "metallicFactor": 0.0,
        "roughnessFactor": 0.6
      }
    }
  ],
  "meshes": [
    {
      "name": "Cube_0",
      "primitives": [
        {
          "attributes": {
            "NORMAL": 1,
            "POSITION": 0,
            "TEXCOORD_0": 2
          },
          "indices": 3,
          "material": 0,
          "mode": 4
        }
      ]
    },
    {
      "name": "Cube.001_0",
      "primitives": [
        {
          "attributes": {
            "NORMAL": 5,
            "POSITION": 4,
            "TEXCOORD_0": 6
          },
          "indices": 7,
          "material": 0,
          "mode": 4
        }
      ]
    },
    {
      "name": "Cube.002_0",
      "primitives": [
        {
          "attributes": {
            "NORMAL": 9,
            "POSITION": 8,
            "TEXCOORD_0": 10
          },
          "indices": 11,
          "material": 0,
          "mode": 4
        }
      ]
    },
    {
      "name": "Cylinder_0",
      "primitives": [
        {
          "attributes": {
            "NORMAL": 13,
            "POSITION": 12,
            "TEXCOORD_0": 14
          },
          "indices": 15,
          "material": 1,
          "mode": 4
        }
      ]
    },
    {
      "name": "Cube.003_0",
      "primitives": [
        {
          "attributes": {
            "NORMAL": 17,
            "POSITION": 16,
            "TEXCOORD_0": 18
          },
          "indices": 19,
          "material": 0,
          "mode": 4
        }
      ]
    },
    {
      "name": "Cube.004_0",
      "primitives": [
        {
          "attributes": {
            "NORMAL": 21,
            "POSITION": 20,
            "TEXCOORD_0": 22
          },
          "indices": 23,
          "material": 0,
          "mode": 4
        }
      ]
    },
    {
      "name": "Cube.005_0",
      "primitives": [
        {
          "attributes": {
            "NORMAL": 25,
            "POSITION": 24,
            "TEXCOORD_0": 26
          },
          "indices": 27,
          "material": 0,
          "mode": 4
        }
      ]
    },
    {
      "name": "Cube.010_0",
      "primitives": [
        {
          "attributes": {
            "NORMAL": 29,
            "POSITION": 28,
            "TEXCOORD_0": 30
          },
          "indices": 31,
          "material": 0,
          "mode": 4
        }
      ]
    },
    {
      "name": "Cylinder.001_0",
      "primitives": [
        {
          "attributes": {
            "NORMAL": 33,
            "POSITION": 32,
            "TEXCOORD_0": 34
          },
          "indices": 35,
          "material": 1,
          "mode": 4
        }
      ]
    },
    {
      "name": "Cube.011_0",
      "primitives": [
        {
          "attributes": {
            "NORMAL": 37,
            "POSITION": 36,
            "TEXCOORD_0": 38
          },
          "indices": 39,
          "material": 0,
          "mode": 4
        }
      ]
    },
    {
      "name": "Cube.012_0",
      "primitives": [
        {
          "attributes": {
            "NORMAL": 41,
            "POSITION": 40,
            "TEXCOORD_0": 42
          },
          "indices": 43,
          "material": 0,
          "mode": 4
        }
      ]
    },
    {
      "name": "Cube.013_0",
      "primitives": [
        {
          "attributes": {
            "NORMAL": 45,
            "POSITION": 44,
            "TEXCOORD_0": 46
          },
          "indices": 47,
          "material": 0,
          "mode": 4
        }
      ]
    }
  ],
  "nodes": [
    {
      "children": [
        1
      ],
      "matrix": [
        1.0,
        0.0,
        0.0,
        0.0,
        0.0,
        2.220446049250313e-16,
        -1.0,
        0.0,
        0.0,
        1.0,
        2.220446049250313e-16,
        0.0,
        0.0,
        0.0,
        0.0,
        1.0
      ],
      "name": "Sketchfab_model"
    },
    {
      "children": [
        2,
        4,
        6,
        8,
        10,
        12,
        14,
        16,
        18,
        20,
        22,
        24
      ],
      "name": "Root"
    },
    {
      "children": [
        3
      ],
      "matrix": [
        0.90923,
        0.0,
        0.12476000000000002,
        0.0,
        0.0,
        0.26467,
        0.0,
        0.0,
        -0.12476000000000002,
        0.0,
        0.90923,
        0.0,
        -24.02006,
        -5.2799000000000005,
        8.422410000000001,
        1.0
      ],
      "name": "Cube"
    },
    {
      "mesh": 0,
      "name": "Cube_0"
    },
    {
      "children": [
        5
      ],
      "matrix": [
        0.78827,
        0.0,
        0.13766,
        0.0,
        0.0,
        0.5406400000000001,
        0.0,
        0.0,
        -0.13766,
        0.0,
        0.78827,
        0.0,
        -25.585289999999997,
        -5.47482,
        8.143909999999998,
        1.0
      ],
      "name": "Cube.001"
    },
    {
      "mesh": 1,
      "name": "Cube.001_0"
    },
    {
      "children": [
        7
      ],
      "matrix": [
        0.90923,
        0.0,
        0.12476000000000002,
        0.0,
        0.0,
        0.26467,
        0.0,
        0.0,
        -0.12476000000000002,
        0.0,
        0.90923,
        0.0,
        -23.49146,
        -5.03396,
        8.412490000000002,
        1.0
      ],
      "name": "Cube.002"
    },
    {
      "mesh": 2,
      "name": "Cube.002_0"
    },
    {
      "children": [
        9
      ],
      "matrix": [
        -0.0,
        1.04273,
        -0.0,
        0.0,
        -0.21265,
        -0.0,
        2.4129899999999997,
        0.0,
        0.07560000000000001,
        0.0,
        0.006660000000000002,
        0.0,
        -12.17008,
        -5.28361,
        10.02673,
        1.0
      ],
      "name": "Cylinder"
    },
    {
      "mesh": 3,
      "name": "Cylinder_0"
    },
    {
      "children": [
        11
      ],
      "matrix": [
        0.9811799999999999,
        0.0,
        0.08657000000000002,
        0.0,
        0.0,
        0.36903,
        0.0,
        0.0,
        -0.08657000000000002,
        0.0,
        0.9811799999999999,
        0.0,
        -11.028459999999999,
        -5.280060000000001,
        10.0915,
        1.0
      ],
      "name": "Cube.003"
    },
    {
      "mesh": 4,
      "name": "Cube.003_0"
    },
    {
      "children": [
        13
      ],
      "matrix": [
        1.0,
        0.0,
        0.002290000000000001,
        0.0,
        0.0,
        0.06783000000000002,
        0.0,
        0.0,
        -0.002290000000000001,
        0.0,
        1.0,
        0.0,
        -4.93705,
        -5.2991,
        10.18589,
        1.0
      ],
      "name": "Cube.004"
    },
    {
      "mesh": 5,
      "name": "Cube.004_0"
    },
    {
      "children": [
        15
      ],
      "matrix": [
        0.99982,
        0.0,
        -0.018760000000000002,
        0.0,
        0.0,
        0.31943000000000005,
        0.0,
        0.0,
        0.018760000000000002,
        0.0,
        0.99982,
        0.0,
        -9.359490000000003,
        -5.27259,
        24.476509999999998,
        1.0
      ],
      "name": "Cube.005"
    },
    {
      "mesh": 6,
      "name": "Cube.005_0"
    },
    {
      "children": [
        17
      ],
      "matrix": [
        0.9811799999999999,
        0.0,
        0.08657000000000002,
        0.0,
        0.0,
        0.36903,
        0.0,
        0.0,
        -0.08657000000000002,
        0.0,
        0.9811799999999999,
        0.0,
        -9.76597,
        -5.280060000000001,
        24.54734,
        1.0
      ],
      "name": "Cube.010"
    },
    {
      "mesh": 7,
      "name": "Cube.010_0"
    },
    {
      "children": [
        19
      ],
      "matrix": [
        -0.0,
        1.04273,
        -0.0,
        0.0,
        -0.21265,
        -0.0,
        2.4129899999999997,
        0.0,
        0.07560000000000001,
        0.0,
        0.006660000000000002,
        0.0,
        -10.90759,
        -5.28361,
        24.482569999999996,
        1.0
      ],
      "name": "Cylinder.001"
    },
    {
      "mesh": 8,
      "name": "Cylinder.001_0"
    },
    {
      "children": [
        21
      ],
      "matrix": [
        0.90923,
        0.0,
        0.12476000000000002,
        0.0,
        0.0,
        0.26467,
        0.0,
        0.0,
        -0.12476000000000002,
        0.0,
        0.90923,
        0.0,
        -22.22897,
        -5.03396,
        22.868329999999997,
        1.0
      ],
      "name": "Cube.011"
    },
    {
      "mesh": 9,
      "name": "Cube.011_0"
    },
    {
      "children": [
        23
      ],
      "matrix": [
        0.78827,
        0.0,
        0.13766,
        0.0,
        0.0,
        0.5406400000000001,
        0.0,
        0.0,
        -0.13766,
        0.0,
        0.78827,
        0.0,
        -24.3228,
        -5.47482,
        22.59975,
        1.0
      ],
      "name": "Cube.012"
    },
    {
      "mesh": 10,
      "name": "Cube.012_0"
    },
    {
      "children": [
        25
      ],
      "matrix": [
        0.90923,
        0.0,
        0.12476000000000002,
        0.0,
        0.0,
        0.26467,
        0.0,
        0.0,
        -0.12476000000000002,
        0.0,
        0.90923,
        0.0,
        -22.75757,
        -5.2799000000000005,
        22.87825,
        1.0
      ],
      "name": "Cube.013"
    },
    {
      "mesh": 11,
      "name": "Cube.013_0"
    }
  ],
  "samplers": [
    {
      "magFilter": 9729,
      "minFilter": 9987,
      "wrapS": 10497,
      "wrapT": 10497
    }
  ],
  "scene": 0,
  "scenes": [
    {
      "name": "Sketchfab_Scene",
      "nodes": [
        0
      ]
    }
  ],
  "textures": [
    {
      "sampler": 0,
      "source": 0
    },
    {
      "sampler": 0,
      "source": 1
    }
  ]
}
